<svg id="visual" viewBox="0 0 1920 1080" width="1920" height="1080" xmlns="http://www.w3.org/2000/svg" xmlns:xlink="http://www.w3.org/1999/xlink" version="1.1"><rect x="0" y="0" width="1920" height="1080" fill="#001220"></rect><defs><linearGradient id="grad1_0" x1="43.8%" y1="0%" x2="100%" y2="100%"><stop offset="14.444444444444446%" stop-color="#001220" stop-opacity="1"></stop><stop offset="85.55555555555554%" stop-color="#001220" stop-opacity="1"></stop></linearGradient></defs><defs><linearGradient id="grad2_0" x1="0%" y1="0%" x2="56.3%" y2="100%"><stop offset="14.444444444444446%" stop-color="#001220" stop-opacity="1"></stop><stop offset="85.55555555555554%" stop-color="#001220" stop-opacity="1"></stop></linearGradient></defs><g transform="translate(1920, 0)"><path d="M0 324C-37.5 327.3 -75.1 330.6 -100.1 308.1C-125.2 285.6 -137.8 237.3 -149.3 205.5C-160.8 173.7 -171.3 158.4 -199.8 145.2C-228.4 132 -274.9 120.9 -298.6 97C-322.3 73.2 -323.2 36.6 -324 0L0 0Z" fill="#3ce9fa"></path></g><g transform="translate(0, 1080)"><path d="M0 -324C25.1 -286.5 50.2 -248.9 76 -234C101.9 -219 128.5 -226.6 164 -225.7C199.5 -224.8 243.8 -215.4 262.1 -190.4C280.4 -165.5 272.7 -124.9 278.7 -90.5C284.6 -56.2 304.3 -28.1 324 0L0 0Z" fill="#3ce9fa"></path></g></svg>